STARTFONT 2.1
FONT -Bitstream-Charter-Medium-I-Normal--25-180-100-100-P-136-ISO8859-15
SIZE 18 100 100
FONTBOUNDINGBOX 29 30 -4 -6

STARTPROPERTIES 25
FONTNAME_REGISTRY ""
FAMILY_NAME "Charter"
FOUNDRY "Bitstream"
WEIGHT_NAME "Medium"
SETWIDTH_NAME "Normal"
SLANT "I"
ADD_STYLE_NAME ""
PIXEL_SIZE 25
POINT_SIZE 180
RESOLUTION_X 100
RESOLUTION_Y 100
SPACING "P"
AVERAGE_WIDTH 136
CHARSET_REGISTRY "ISO8859"
CHARSET_ENCODING "15"
CAP_HEIGHT 17
X_HEIGHT 11
CHARSET_COLLECTIONS "ASCII ISOLATIN1"
FACE_NAME "Bitstream Charter Italic"
COPYRIGHT "Copyright 1987 by Bitstream Inc. Charter Registered trademark of Bitstream Inc."
WEIGHT 10
QUAD_WIDTH 15
DEFAULT_CHAR 0
FONT_DESCENT 6
FONT_ASCENT 24
ENDPROPERTIES

CHARS 191

STARTCHAR space
ENCODING 32
SWIDTH 278 0
DWIDTH 7 0
BBX 1 1 0 0
BITMAP
00
ENDCHAR

STARTCHAR exclam
ENCODING 33
SWIDTH 338 0
DWIDTH 8 0
BBX 5 17 2 0
BITMAP
18
38
38
38
30
30
30
20
20
60
60
40
00
00
C0
E0
C0
ENDCHAR

STARTCHAR quotedbl
ENCODING 34
SWIDTH 331 0
DWIDTH 8 0
BBX 6 7 1 11
BITMAP
CC
CC
CC
CC
CC
44
44
ENDCHAR

STARTCHAR numbersign
ENCODING 35
SWIDTH 745 0
DWIDTH 19 0
BBX 16 18 1 0
BITMAP
0084
0184
010C
0108
0308
0218
7FFF
0630
0430
0420
0C20
FFFE
0840
10C0
1080
3080
2180
2100
ENDCHAR

STARTCHAR dollar
ENCODING 36
SWIDTH 556 0
DWIDTH 14 0
BBX 12 22 1 -3
BITMAP
0080
0180
07F0
0D30
1930
3120
3100
3200
3A00
1E00
0F80
03C0
06E0
0460
4460
4460
C4C0
C580
7E00
0800
0800
0800
ENDCHAR

STARTCHAR percent
ENCODING 37
SWIDTH 852 0
DWIDTH 21 0
BBX 19 18 1 0
BITMAP
1C0080
320100
630200
630600
430C00
C30800
C21000
C62380
C66640
4CC460
388C60
010860
021860
061860
0C18C0
0818C0
100980
200700
ENDCHAR

STARTCHAR ampersand
ENCODING 38
SWIDTH 704 0
DWIDTH 18 0
BBX 16 17 1 0
BITMAP
03E0
0C70
0830
1830
1830
1860
0CC0
0F00
1E1F
3304
638C
C1C8
C0D0
C070
E070
71B8
3F1E
ENDCHAR

STARTCHAR quoteright
ENCODING 39
SWIDTH 201 0
DWIDTH 5 0
BBX 5 7 1 11
BITMAP
30
78
78
18
10
20
C0
ENDCHAR

STARTCHAR parenleft
ENCODING 40
SWIDTH 419 0
DWIDTH 10 0
BBX 9 22 2 -4
BITMAP
0180
0700
0C00
1800
1800
3000
3000
6000
6000
6000
6000
C000
C000
C000
C000
C000
C000
C000
6000
6000
3000
1800
ENDCHAR

STARTCHAR parenright
ENCODING 41
SWIDTH 419 0
DWIDTH 10 0
BBX 9 22 -2 -4
BITMAP
0C00
0600
0300
0100
0180
0180
0180
0180
0180
0180
0180
0300
0300
0300
0300
0600
0600
0C00
0C00
1800
7000
C000
ENDCHAR

STARTCHAR asterisk
ENCODING 42
SWIDTH 500 0
DWIDTH 12 0
BBX 9 10 3 8
BITMAP
0400
0C00
0800
4900
EB80
1400
1800
2C00
6400
4400
ENDCHAR

STARTCHAR plus
ENCODING 43
SWIDTH 833 0
DWIDTH 21 0
BBX 15 15 3 0
BITMAP
0100
0100
0100
0100
0100
0100
0100
FFFE
0100
0100
0100
0100
0100
0100
0100
ENDCHAR

STARTCHAR comma
ENCODING 44
SWIDTH 278 0
DWIDTH 7 0
BBX 4 7 -1 -4
BITMAP
30
70
70
10
20
60
80
ENDCHAR

STARTCHAR hyphen
ENCODING 45
SWIDTH 319 0
DWIDTH 8 0
BBX 6 1 1 5
BITMAP
FC
ENDCHAR

STARTCHAR period
ENCODING 46
SWIDTH 278 0
DWIDTH 7 0
BBX 3 3 1 0
BITMAP
E0
E0
E0
ENDCHAR

STARTCHAR slash
ENCODING 47
SWIDTH 481 0
DWIDTH 12 0
BBX 16 19 -3 -2
BITMAP
0003
0006
0004
0008
0018
0030
0020
0040
00C0
0180
0300
0200
0600
0C00
1800
1000
2000
6000
C000
ENDCHAR

STARTCHAR zero
ENCODING 48
SWIDTH 556 0
DWIDTH 14 0
BBX 13 17 1 0
BITMAP
03E0
0C30
1810
3018
7018
6018
6018
6018
C018
C038
C030
C030
C070
C060
40C0
6180
3E00
ENDCHAR

STARTCHAR one
ENCODING 49
SWIDTH 556 0
DWIDTH 14 0
BBX 8 17 2 0
BITMAP
03
1F
3F
06
06
06
06
06
04
0C
0C
0C
0C
0C
18
18
FE
ENDCHAR

STARTCHAR two
ENCODING 50
SWIDTH 556 0
DWIDTH 14 0
BBX 13 17 0 0
BITMAP
03F0
0C38
1C18
1C18
1818
0018
0030
0030
0060
00C0
0180
0300
0C00
1810
7010
FFF0
FFF0
ENDCHAR

STARTCHAR three
ENCODING 51
SWIDTH 556 0
DWIDTH 14 0
BBX 13 17 0 0
BITMAP
03F0
0C38
1818
1818
0018
0030
0060
0780
07E0
0070
0030
0030
0030
C070
E060
E1C0
3F00
ENDCHAR

STARTCHAR four
ENCODING 52
SWIDTH 556 0
DWIDTH 14 0
BBX 13 18 0 -1
BITMAP
0030
0070
0070
00B0
0130
0260
0660
0C60
1860
3060
6040
FFF8
00C0
00C0
00C0
0180
0180
0180
ENDCHAR

STARTCHAR five
ENCODING 53
SWIDTH 556 0
DWIDTH 14 0
BBX 13 17 0 0
BITMAP
0FF8
0FF8
0C00
0800
1800
1800
1800
1FC0
00F0
0030
0030
0030
0030
4060
E060
E1C0
7E00
ENDCHAR

STARTCHAR six
ENCODING 54
SWIDTH 556 0
DWIDTH 14 0
BBX 12 18 1 0
BITMAP
0030
01E0
0700
0C00
1800
3000
3000
6FC0
70E0
E070
C030
C030
C030
C030
C060
6060
71C0
3F00
ENDCHAR

STARTCHAR seven
ENCODING 55
SWIDTH 556 0
DWIDTH 14 0
BBX 14 18 1 -1
BITMAP
1FFC
1FFC
3018
2030
0020
0060
00C0
0080
0180
0300
0200
0600
0C00
1800
1800
3000
6000
E000
ENDCHAR

STARTCHAR eight
ENCODING 56
SWIDTH 556 0
DWIDTH 14 0
BBX 13 17 0 0
BITMAP
03E0
0C30
1818
3818
3018
3830
3C30
1FC0
0FC0
31E0
6070
C030
C030
C030
C060
70E0
3F80
ENDCHAR

STARTCHAR nine
ENCODING 57
SWIDTH 556 0
DWIDTH 14 0
BBX 12 18 1 -1
BITMAP
0FC0
38E0
7070
6030
C030
C030
C030
C030
E070
70E0
3FE0
00C0
0180
0300
0E00
3800
6000
8000
ENDCHAR

STARTCHAR colon
ENCODING 58
SWIDTH 319 0
DWIDTH 8 0
BBX 5 11 1 0
BITMAP
38
38
38
00
00
00
00
00
E0
E0
E0
ENDCHAR

STARTCHAR semicolon
ENCODING 59
SWIDTH 319 0
DWIDTH 8 0
BBX 7 15 -1 -4
BITMAP
0C
0E
0C
00
00
00
00
00
38
38
38
18
10
20
C0
ENDCHAR

STARTCHAR less
ENCODING 60
SWIDTH 833 0
DWIDTH 21 0
BBX 14 13 3 1
BITMAP
0004
003C
00F0
0380
1E00
7800
C000
7800
1E00
0380
00F0
003C
0004
ENDCHAR

STARTCHAR equal
ENCODING 61
SWIDTH 833 0
DWIDTH 21 0
BBX 15 5 3 5
BITMAP
FFFE
0000
0000
0000
FFFE
ENDCHAR

STARTCHAR greater
ENCODING 62
SWIDTH 833 0
DWIDTH 21 0
BBX 14 13 4 1
BITMAP
8000
F000
3C00
0700
01E0
0078
000C
0078
01E0
0700
3C00
F000
8000
ENDCHAR

STARTCHAR question
ENCODING 63
SWIDTH 486 0
DWIDTH 12 0
BBX 9 17 2 0
BITMAP
3E00
E380
E180
0180
0180
0300
0700
0E00
3800
2000
2000
6000
0000
0000
E000
E000
E000
ENDCHAR

STARTCHAR at
ENCODING 64
SWIDTH 942 0
DWIDTH 23 0
BBX 19 21 2 -4
BITMAP
00FC00
070300
0C0080
180040
300040
207E20
618E20
630C20
C30C20
C60C20
C60C20
C60C40
C61840
C73880
63CF00
618E00
300000
300000
180080
0E0700
03F800
ENDCHAR

STARTCHAR A
ENCODING 65
SWIDTH 606 0
DWIDTH 15 0
BBX 16 17 -2 0
BITMAP
0030
0070
0070
00F0
0098
0198
0118
0318
0618
0618
0FFC
080C
180C
100C
300C
200C
F81F
ENDCHAR

STARTCHAR B
ENCODING 66
SWIDTH 588 0
DWIDTH 14 0
BBX 14 17 -1 0
BITMAP
1FF8
061C
060C
0E0C
0C0C
0C0C
0C18
0C30
1FF0
1C38
1818
180C
181C
3818
3838
3070
FFC0
ENDCHAR

STARTCHAR C
ENCODING 67
SWIDTH 604 0
DWIDTH 15 0
BBX 14 17 1 0
BITMAP
03F8
0E0C
180C
300C
7008
6000
6000
C000
C000
C000
C000
C000
C010
6030
6030
3860
1FC0
ENDCHAR

STARTCHAR D
ENCODING 68
SWIDTH 671 0
DWIDTH 16 0
BBX 16 17 -1 0
BITMAP
1FF0
061C
0606
0E06
0C03
0C03
0C03
0C03
1C03
1803
1806
1806
180E
381C
3838
30F0
FF80
ENDCHAR

STARTCHAR E
ENCODING 69
SWIDTH 546 0
DWIDTH 13 0
BBX 14 17 -1 0
BITMAP
1FFC
060C
0C0C
0C08
0C00
0C00
0C20
1C20
1FE0
1840
1840
1800
1800
3018
3010
3030
FFF0
ENDCHAR

STARTCHAR F
ENCODING 70
SWIDTH 509 0
DWIDTH 13 0
BBX 14 17 -1 0
BITMAP
1FFC
060C
0E0C
0C08
0C00
0C00
0C20
1C20
1FE0
1840
1840
1800
1800
3800
3000
3000
FC00
ENDCHAR

STARTCHAR G
ENCODING 71
SWIDTH 664 0
DWIDTH 17 0
BBX 16 17 1 0
BITMAP
01FE
0707
1C02
3802
3006
7000
6000
E000
C000
C07F
C01C
C01C
C018
6018
7018
3838
0FE0
ENDCHAR

STARTCHAR H
ENCODING 72
SWIDTH 712 0
DWIDTH 18 0
BBX 19 17 -1 0
BITMAP
1F87E0
060180
0E0180
0C0380
0C0300
0C0300
0C0300
0C0300
1FFF00
180600
180600
180600
180600
380600
300E00
300C00
FC3F00
ENDCHAR

STARTCHAR I
ENCODING 73
SWIDTH 313 0
DWIDTH 8 0
BBX 9 17 -1 0
BITMAP
1F80
0600
0600
0E00
0C00
0C00
0C00
0C00
1C00
1800
1800
1800
1800
3800
3000
3000
FC00
ENDCHAR

STARTCHAR J
ENCODING 74
SWIDTH 447 0
DWIDTH 11 0
BBX 13 17 -1 0
BITMAP
01F8
0060
00E0
00E0
00C0
00C0
00C0
01C0
01C0
0180
0180
0180
4380
4300
C300
C600
FC00
ENDCHAR

STARTCHAR K
ENCODING 75
SWIDTH 625 0
DWIDTH 15 0
BBX 17 17 -1 0
BITMAP
1F9F80
060600
0E0C00
0C1800
0C3000
0C6000
0CC000
1D8000
1F8000
198000
19C000
18C000
18E000
306000
307000
303800
FC1E00
ENDCHAR

STARTCHAR L
ENCODING 76
SWIDTH 498 0
DWIDTH 12 0
BBX 12 17 -1 0
BITMAP
1F80
0600
0E00
0C00
0C00
0C00
0C00
0C00
1C00
1800
1800
1800
1810
3830
3030
3020
FFE0
ENDCHAR

STARTCHAR M
ENCODING 77
SWIDTH 839 0
DWIDTH 21 0
BBX 22 17 -1 0
BITMAP
1F007C
070070
0F00F0
0B01B0
0B0130
098360
098260
198660
198460
118C60
1188C0
10D8C0
10D0C0
30F0C0
30E0C0
20C180
F8C7E0
ENDCHAR

STARTCHAR N
ENCODING 78
SWIDTH 683 0
DWIDTH 17 0
BBX 19 17 -1 0
BITMAP
1E03E0
070080
070180
0F8180
0D8100
098100
08C100
08C300
186300
186200
107200
103200
103E00
301E00
301E00
200C00
F80C00
ENDCHAR

STARTCHAR O
ENCODING 79
SWIDTH 708 0
DWIDTH 18 0
BBX 16 17 1 0
BITMAP
03F0
0E1C
1806
3806
7003
6003
6003
E003
C003
C003
C006
C006
C00E
600C
6018
3870
0FC0
ENDCHAR

STARTCHAR P
ENCODING 80
SWIDTH 542 0
DWIDTH 13 0
BBX 14 17 -1 0
BITMAP
1FF0
0638
061C
0E0C
0C0C
0C0C
0C0C
0C18
1C18
1870
1FC0
1800
1800
3800
3000
3000
FC00
ENDCHAR

STARTCHAR Q
ENCODING 81
SWIDTH 708 0
DWIDTH 18 0
BBX 17 21 1 -4
BITMAP
03F000
0E1C00
180600
380600
700300
600300
600300
E00300
C00300
C00300
C00600
C00600
C00E00
600C00
601800
387000
0FE000
00E000
007000
007880
001F00
ENDCHAR

STARTCHAR R
ENCODING 82
SWIDTH 602 0
DWIDTH 15 0
BBX 16 17 -1 0
BITMAP
1FF0
0638
060C
0E0C
0C0C
0C0C
0C18
0C30
1FC0
1860
1830
1830
1830
3830
3018
3018
FC0F
ENDCHAR

STARTCHAR S
ENCODING 83
SWIDTH 537 0
DWIDTH 13 0
BBX 12 17 0 0
BITMAP
07F0
0C30
1830
3030
3000
3000
3800
1E00
0F80
03C0
00E0
0060
4060
4060
C0C0
C180
7E00
ENDCHAR

STARTCHAR T
ENCODING 84
SWIDTH 565 0
DWIDTH 14 0
BBX 14 17 1 0
BITMAP
7FFC
C30C
C30C
8308
0700
0600
0600
0600
0600
0600
0C00
0C00
0C00
0C00
0C00
1C00
7E00
ENDCHAR

STARTCHAR U
ENCODING 85
SWIDTH 664 0
DWIDTH 17 0
BBX 16 17 2 0
BITMAP
FC1F
3004
300C
300C
6008
6008
6008
6018
6018
6010
C010
C010
C030
C020
C060
E0C0
3F80
ENDCHAR

STARTCHAR V
ENCODING 86
SWIDTH 590 0
DWIDTH 15 0
BBX 15 17 1 0
BITMAP
F83E
700C
3008
3018
3010
3020
3020
3040
1840
1880
1880
1900
1900
1A00
0E00
0C00
0C00
ENDCHAR

STARTCHAR W
ENCODING 87
SWIDTH 898 0
DWIDTH 23 0
BBX 23 17 1 0
BITMAP
F8183E
303808
303818
307810
305830
305820
309820
308C60
318C40
310CC0
3B0C80
3A0D80
1E0D00
1C0F00
1C0E00
180E00
180400
ENDCHAR

STARTCHAR X
ENCODING 88
SWIDTH 569 0
DWIDTH 14 0
BBX 18 17 -2 0
BITMAP
1FC7C0
070300
030600
030400
018800
019000
01F000
00E000
00E000
01E000
036000
023000
063000
0C1800
181800
301C00
FC7F00
ENDCHAR

STARTCHAR Y
ENCODING 89
SWIDTH 563 0
DWIDTH 14 0
BBX 15 17 1 0
BITMAP
FC3E
3018
3010
3830
1860
18C0
1C80
0D80
0F00
0E00
0600
0C00
0C00
0C00
0C00
0C00
3F00
ENDCHAR

STARTCHAR Z
ENCODING 90
SWIDTH 556 0
DWIDTH 14 0
BBX 15 17 -1 0
BITMAP
0FFE
080C
181C
1838
0070
0060
00C0
01C0
0380
0700
0600
0C00
1C08
3818
7010
6030
FFF0
ENDCHAR

STARTCHAR bracketleft
ENCODING 91
SWIDTH 421 0
DWIDTH 10 0
BBX 10 21 1 -3
BITMAP
0FC0
0C00
0C00
1800
1800
1800
1800
1800
3000
3000
3000
3000
3000
6000
6000
6000
6000
6000
C000
C000
FC00
ENDCHAR

STARTCHAR backslash
ENCODING 92
SWIDTH 481 0
DWIDTH 12 0
BBX 11 19 1 -2
BITMAP
C000
4000
6000
2000
3000
1000
1800
0800
0C00
0400
0600
0200
0300
0100
0180
0080
00C0
0040
0060
ENDCHAR

STARTCHAR bracketright
ENCODING 93
SWIDTH 421 0
DWIDTH 11 0
BBX 10 21 -1 -3
BITMAP
0FC0
00C0
00C0
0180
0180
0180
0180
0180
0300
0300
0300
0300
0300
0600
0600
0600
0600
0600
0C00
0C00
FC00
ENDCHAR

STARTCHAR asciicircum
ENCODING 94
SWIDTH 1000 0
DWIDTH 25 0
BBX 15 7 5 11
BITMAP
0380
07C0
0C60
1830
3018
600C
C006
ENDCHAR

STARTCHAR underscore
ENCODING 95
SWIDTH 500 0
DWIDTH 12 0
BBX 12 1 0 -6
BITMAP
FFF0
ENDCHAR

STARTCHAR quoteleft
ENCODING 96
SWIDTH 201 0
DWIDTH 5 0
BBX 4 7 2 11
BITMAP
30
60
40
C0
E0
E0
40
ENDCHAR

STARTCHAR a
ENCODING 97
SWIDTH 525 0
DWIDTH 13 0
BBX 12 11 0 0
BITMAP
07E0
18E0
3040
6040
6040
C0C0
C0C0
C0C0
C080
E380
7CF0
ENDCHAR

STARTCHAR b
ENCODING 98
SWIDTH 507 0
DWIDTH 13 0
BBX 11 18 1 0
BITMAP
7800
1800
1800
3800
3000
3000
3000
37C0
38E0
6060
6060
6060
6060
60C0
C0C0
C180
E300
7C00
ENDCHAR

STARTCHAR c
ENCODING 99
SWIDTH 394 0
DWIDTH 10 0
BBX 9 11 0 0
BITMAP
0F00
1380
2100
6000
C000
C000
C000
C000
C080
6300
3C00
ENDCHAR

STARTCHAR d
ENCODING 100
SWIDTH 523 0
DWIDTH 13 0
BBX 12 18 0 0
BITMAP
00F0
0030
0030
0020
0020
0020
0060
07E0
18E0
3060
6040
6040
C0C0
C0C0
C0C0
C1C0
E2C0
7CF0
ENDCHAR

STARTCHAR e
ENCODING 101
SWIDTH 424 0
DWIDTH 11 0
BBX 9 11 1 0
BITMAP
0F00
1180
2180
6380
C600
F800
C000
C000
C080
6300
3C00
ENDCHAR

STARTCHAR f
ENCODING 102
SWIDTH 292 0
DWIDTH 7 0
BBX 14 23 -4 -5
BITMAP
0038
005C
00C8
0080
0180
0180
0180
07F0
0300
0300
0300
0300
0300
0200
0600
0600
0600
0600
0400
0C00
0800
F000
E000
ENDCHAR

STARTCHAR g
ENCODING 103
SWIDTH 481 0
DWIDTH 12 0
BBX 13 16 -1 -5
BITMAP
0780
1CF8
1860
3060
3060
30C0
1980
0F00
0800
1E00
63C0
C0E0
C060
C060
60C0
3F00
ENDCHAR

STARTCHAR h
ENCODING 104
SWIDTH 551 0
DWIDTH 14 0
BBX 12 18 1 0
BITMAP
7C00
1800
1800
1800
1800
3000
3000
33E0
3C60
7060
6060
60C0
60C0
60C0
E0C0
C180
C1C0
C1F0
ENDCHAR

STARTCHAR i
ENCODING 105
SWIDTH 287 0
DWIDTH 7 0
BBX 5 18 1 0
BITMAP
18
38
18
00
00
00
00
F0
30
60
60
60
60
60
C0
C0
C0
F8
ENDCHAR

STARTCHAR j
ENCODING 106
SWIDTH 269 0
DWIDTH 7 0
BBX 9 23 -3 -5
BITMAP
0180
0380
0180
0000
0000
0000
0000
0F00
0300
0300
0300
0200
0600
0600
0600
0600
0600
0400
0C00
0C00
0800
9000
E000
ENDCHAR

STARTCHAR k
ENCODING 107
SWIDTH 514 0
DWIDTH 13 0
BBX 11 18 1 0
BITMAP
7800
1800
1800
1800
3000
3000
3000
30E0
31E0
6340
6600
6C00
7C00
6E00
C600
C300
C380
C1E0
ENDCHAR

STARTCHAR l
ENCODING 108
SWIDTH 275 0
DWIDTH 7 0
BBX 5 18 1 0
BITMAP
78
18
10
30
30
30
30
20
60
60
60
60
40
C0
C0
C0
C0
F8
ENDCHAR

STARTCHAR m
ENCODING 109
SWIDTH 815 0
DWIDTH 20 0
BBX 18 11 1 0
BITMAP
F3CF80
3CD180
30E180
30C180
60C180
60C300
60C300
60C300
618300
C18700
C183C0
ENDCHAR

STARTCHAR n
ENCODING 110
SWIDTH 556 0
DWIDTH 14 0
BBX 12 11 1 0
BITMAP
F3E0
3C60
3060
3060
6040
60C0
60C0
60C0
60C0
C1C0
C0F0
ENDCHAR

STARTCHAR o
ENCODING 111
SWIDTH 502 0
DWIDTH 13 0
BBX 11 11 1 0
BITMAP
0F80
18C0
6060
6060
C060
C060
C060
C0C0
C0C0
6380
3E00
ENDCHAR

STARTCHAR p
ENCODING 112
SWIDTH 516 0
DWIDTH 13 0
BBX 14 16 -2 -5
BITMAP
1EF8
071C
0C0C
0C0C
0C0C
0C0C
0C1C
1818
1830
1860
1F80
3800
3000
3000
3000
FC00
ENDCHAR

STARTCHAR q
ENCODING 113
SWIDTH 512 0
DWIDTH 13 0
BBX 11 16 1 -5
BITMAP
07A0
18E0
3060
6040
6040
C0C0
C0C0
C0C0
C0C0
E380
7D80
0180
0180
0180
0380
0FE0
ENDCHAR

STARTCHAR r
ENCODING 114
SWIDTH 398 0
DWIDTH 10 0
BBX 9 11 1 0
BITMAP
F380
3D80
2800
3000
6000
6000
6000
6000
6000
C000
C000
ENDCHAR

STARTCHAR s
ENCODING 115
SWIDTH 370 0
DWIDTH 10 0
BBX 9 11 0 0
BITMAP
0F00
1180
3000
3000
3C00
0E00
0700
0300
E300
C200
7C00
ENDCHAR

STARTCHAR t
ENCODING 116
SWIDTH 333 0
DWIDTH 8 0
BBX 7 14 1 0
BITMAP
10
30
30
FE
60
60
60
60
60
C0
C0
C0
C4
F8
ENDCHAR

STARTCHAR u
ENCODING 117
SWIDTH 553 0
DWIDTH 14 0
BBX 12 11 1 0
BITMAP
F060
3060
60C0
60C0
60C0
60C0
C080
C180
C180
C780
79F0
ENDCHAR

STARTCHAR v
ENCODING 118
SWIDTH 454 0
DWIDTH 12 0
BBX 11 11 0 0
BITMAP
F0E0
3060
1060
1840
1880
1880
1900
1A00
1C00
1C00
1800
ENDCHAR

STARTCHAR w
ENCODING 119
SWIDTH 713 0
DWIDTH 18 0
BBX 17 11 0 0
BITMAP
F04380
30C180
30C180
316100
316300
326200
326400
346800
386800
387000
306000
ENDCHAR

STARTCHAR x
ENCODING 120
SWIDTH 477 0
DWIDTH 11 0
BBX 13 11 -1 0
BITMAP
3C38
0C58
0680
0680
0700
0300
0700
0F00
0980
D180
E0F0
ENDCHAR

STARTCHAR y
ENCODING 121
SWIDTH 475 0
DWIDTH 12 0
BBX 15 16 -3 -5
BITMAP
3E0E
060C
0618
0210
0310
0320
0320
0340
01C0
0180
0180
0100
0200
0600
CC00
F000
ENDCHAR

STARTCHAR z
ENCODING 122
SWIDTH 440 0
DWIDTH 11 0
BBX 12 11 -1 0
BITMAP
1FB0
2360
20C0
3180
0300
0600
0C00
18E0
3060
7C40
C780
ENDCHAR

STARTCHAR braceleft
ENCODING 123
SWIDTH 486 0
DWIDTH 12 0
BBX 9 20 1 -3
BITMAP
0380
0600
0C00
0C00
0C00
0C00
0C00
0C00
1800
E000
1800
0C00
0C00
0C00
0C00
0C00
0C00
0C00
0600
0380
ENDCHAR

STARTCHAR bar
ENCODING 124
SWIDTH 500 0
DWIDTH 12 0
BBX 1 25 6 -6
BITMAP
80
80
80
80
80
80
80
80
80
80
80
80
80
80
80
80
80
80
80
80
80
80
80
80
80
ENDCHAR

STARTCHAR braceright
ENCODING 125
SWIDTH 486 0
DWIDTH 12 0
BBX 9 20 1 -3
BITMAP
E000
3000
1800
1800
1800
1800
1800
1800
0C00
0380
0C00
1800
1800
1800
1800
1800
1800
1800
3000
E000
ENDCHAR

STARTCHAR c0126
ENCODING 126
SWIDTH 1000 0
DWIDTH 25 0
BBX 15 2 5 14
BITMAP
3F06
C1F8
ENDCHAR

STARTCHAR space
ENCODING 160
SWIDTH 278 0
DWIDTH 7 0
BBX 1 1 0 0
BITMAP
00
ENDCHAR

STARTCHAR exclamdown
ENCODING 161
SWIDTH 338 0
DWIDTH 8 0
BBX 5 17 2 0
BITMAP
18
38
18
00
00
10
30
30
20
20
60
60
60
60
E0
E0
C0
ENDCHAR

STARTCHAR cent
ENCODING 162
SWIDTH 556 0
DWIDTH 14 0
BBX 11 17 1 -2
BITMAP
0100
0100
0100
07E0
1A60
3260
6200
6200
C400
C400
C400
C400
C480
6880
3F80
0800
0800
ENDCHAR

STARTCHAR sterling
ENCODING 163
SWIDTH 556 0
DWIDTH 14 0
BBX 14 17 0 0
BITMAP
00F8
019C
030C
0600
0600
0E00
0C00
0C00
3FE0
0C00
1800
1800
1800
3000
2000
FFE0
FFE0
ENDCHAR

STARTCHAR EuroSign
ENCODING 164
SWIDTH 514 0
DWIDTH 13 0
BBX 16 17 -1 0
BITMAP
007E
0187
0303
0602
0C02
0C00
1800
7FF0
1800
FFE0
3000
3000
3000
3008
3010
1860
0F80
ENDCHAR

STARTCHAR yen
ENCODING 165
SWIDTH 556 0
DWIDTH 14 0
BBX 15 17 0 0
BITMAP
7E1E
1808
1818
1C30
0C20
0C40
7CF8
0680
0700
0700
FFF8
0600
0600
0600
0600
0C00
3F00
ENDCHAR

STARTCHAR Scaron
ENCODING 166
SWIDTH 537 0
DWIDTH 13 0
BBX 12 23 0 0
BITMAP
0C60
0640
0240
01C0
0180
0000
07F0
0C30
1830
3030
3000
3000
3800
1E00
0F80
03C0
00E0
0060
4060
4060
C0C0
C180
7E00
ENDCHAR

STARTCHAR section
ENCODING 167
SWIDTH 500 0
DWIDTH 12 0
BBX 11 22 0 -4
BITMAP
07E0
0C60
1860
1860
1800
1C00
0F00
0F80
31C0
20C0
60C0
60C0
6180
7100
3E00
0E00
0700
0300
C300
C300
C600
7C00
ENDCHAR

STARTCHAR scaron
ENCODING 168
SWIDTH 370 0
DWIDTH 10 0
BBX 9 17 0 0
BITMAP
3180
1900
0900
0700
0600
0000
0F00
1180
3000
3000
3C00
0E00
0700
0300
E300
C200
7C00
ENDCHAR

STARTCHAR copyright
ENCODING 169
SWIDTH 900 0
DWIDTH 22 0
BBX 19 19 2 -1
BITMAP
01F800
060600
180100
300080
21FCC0
430440
460440
8C0020
8C0020
8C0020
8C0020
8C0020
460440
430440
21FCC0
300180
180100
060600
01F800
ENDCHAR

STARTCHAR ordfeminine
ENCODING 170
SWIDTH 394 0
DWIDTH 10 0
BBX 9 8 0 8
BITMAP
0F80
3180
6100
C100
C300
C300
C600
7B80
ENDCHAR

STARTCHAR guillemotleft
ENCODING 171
SWIDTH 442 0
DWIDTH 11 0
BBX 10 9 0 1
BITMAP
0840
18C0
3180
E700
8400
C600
6300
3180
1080
ENDCHAR

STARTCHAR logicalnot
ENCODING 172
SWIDTH 833 0
DWIDTH 21 0
BBX 15 6 3 4
BITMAP
FFFE
0002
0002
0002
0002
0002
ENDCHAR

STARTCHAR hyphen
ENCODING 173
SWIDTH 319 0
DWIDTH 8 0
BBX 6 1 1 5
BITMAP
FC
ENDCHAR

STARTCHAR registered
ENCODING 174
SWIDTH 900 0
DWIDTH 22 0
BBX 19 19 2 -1
BITMAP
01F800
0E0600
180300
300080
67F8C0
431C40
430C40
830C20
831820
83E020
831820
831820
430C60
430C40
67C7C0
200080
180300
0E0600
01F800
ENDCHAR

STARTCHAR macron
ENCODING 175
SWIDTH 500 0
DWIDTH 12 0
BBX 7 1 4 16
BITMAP
FE
ENDCHAR

STARTCHAR degree
ENCODING 176
SWIDTH 329 0
DWIDTH 8 0
BBX 7 7 1 11
BITMAP
38
44
82
82
82
44
38
ENDCHAR

STARTCHAR plusminus
ENCODING 177
SWIDTH 833 0
DWIDTH 21 0
BBX 15 13 3 1
BITMAP
0100
0100
0100
0100
FFFE
0100
0100
0100
0100
0000
0000
0000
FFFE
ENDCHAR

STARTCHAR twosuperior
ENCODING 178
SWIDTH 367 0
DWIDTH 9 0
BBX 8 11 0 7
BITMAP
1E
21
61
01
03
06
0C
10
21
41
FE
ENDCHAR

STARTCHAR threesuperior
ENCODING 179
SWIDTH 367 0
DWIDTH 9 0
BBX 8 11 0 7
BITMAP
0E
31
21
01
06
1C
02
03
C2
C6
78
ENDCHAR

STARTCHAR Zcaron
ENCODING 180
SWIDTH 556 0
DWIDTH 14 0
BBX 15 23 -1 0
BITMAP
0318
0190
0090
0070
0060
0000
0FFE
080C
181C
1838
0070
0060
00C0
01C0
0380
0700
0600
0C00
1C08
3818
7010
6030
FFF0
ENDCHAR

STARTCHAR mu
ENCODING 181
SWIDTH 548 0
DWIDTH 14 0
BBX 15 16 -1 -5
BITMAP
1830
1830
1830
1830
1020
3060
3060
3062
30E4
79E4
6F38
6000
4000
C000
C000
C000
ENDCHAR

STARTCHAR paragraph
ENCODING 182
SWIDTH 484 0
DWIDTH 12 0
BBX 10 19 1 -2
BITMAP
1FC0
7C80
7C80
FC80
FC80
FC80
FC80
7C80
7C80
1C80
0080
0080
0080
0080
0080
0080
0080
0080
0080
ENDCHAR

STARTCHAR periodcentered
ENCODING 183
SWIDTH 278 0
DWIDTH 7 0
BBX 3 3 2 7
BITMAP
E0
E0
E0
ENDCHAR

STARTCHAR zcaron
ENCODING 184
SWIDTH 440 0
DWIDTH 11 0
BBX 12 17 -1 0
BITMAP
0C60
0640
0240
01C0
0180
0000
1FB0
2360
20C0
3180
0300
0600
0C00
18E0
3060
7C40
C780
ENDCHAR

STARTCHAR onesuperior
ENCODING 185
SWIDTH 367 0
DWIDTH 9 0
BBX 6 11 1 7
BITMAP
1C
7C
08
08
08
18
18
10
10
30
FC
ENDCHAR

STARTCHAR ordmasculine
ENCODING 186
SWIDTH 377 0
DWIDTH 9 0
BBX 8 8 0 8
BITMAP
1C
22
63
C3
C3
C6
44
38
ENDCHAR

STARTCHAR guillemotright
ENCODING 187
SWIDTH 442 0
DWIDTH 11 0
BBX 10 9 0 1
BITMAP
4200
6300
3180
18C0
0840
19C0
6300
C600
8400
ENDCHAR

STARTCHAR Ligature_OE
ENCODING 188
SWIDTH 950 0
DWIDTH 24 0
BBX 24 17 1 0
BITMAP
00FFFF
030703
060302
180302
180600
300610
600630
600660
E00FE0
C00C60
C00C40
C01C40
C01800
C01804
603808
307838
1FFFF0
ENDCHAR

STARTCHAR Ligature_oe
ENCODING 189
SWIDTH 673 0
DWIDTH 17 0
BBX 16 11 1 0
BITMAP
0F1E
18B3
30E3
60C6
60C6
E198
C1E0
C380
C382
46CC
38F0
ENDCHAR

STARTCHAR Ydiaeresis
ENCODING 190
SWIDTH 563 0
DWIDTH 14 0
BBX 15 22 1 0
BITMAP
0198
0198
0198
0000
0000
FC3E
3018
3010
3830
1860
18C0
1C80
0D80
0F00
0E00
0600
0C00
0C00
0C00
0C00
0C00
3F00
ENDCHAR

STARTCHAR questiondown
ENCODING 191
SWIDTH 486 0
DWIDTH 12 0
BBX 9 17 1 0
BITMAP
0180
0380
0380
0000
0000
0300
0200
0200
0E00
1800
3000
6000
E000
C000
C180
6380
3E00
ENDCHAR

STARTCHAR Agrave
ENCODING 192
SWIDTH 606 0
DWIDTH 15 0
BBX 16 23 -2 0
BITMAP
00E0
0060
0060
0030
0030
0000
0030
0070
0070
00F0
0098
0198
0118
0318
0618
0618
0FFC
080C
180C
100C
300C
200C
F81F
ENDCHAR

STARTCHAR Aacute
ENCODING 193
SWIDTH 606 0
DWIDTH 15 0
BBX 16 23 -2 0
BITMAP
0007
000E
000C
0018
0030
0000
0030
0070
0070
00F0
0098
0198
0118
0318
0618
0618
0FFC
080C
180C
100C
300C
200C
F81F
ENDCHAR

STARTCHAR Acircumflex
ENCODING 194
SWIDTH 606 0
DWIDTH 15 0
BBX 16 23 -2 0
BITMAP
0030
0038
0048
00C8
018C
0000
0030
0070
0070
00F0
0098
0198
0118
0318
0618
0618
0FFC
080C
180C
100C
300C
200C
F81F
ENDCHAR

STARTCHAR Atilde
ENCODING 195
SWIDTH 606 0
DWIDTH 15 0
BBX 16 23 -2 0
BITMAP
0042
00FC
0108
0000
0000
0000
0030
0070
0070
00F0
0098
0198
0118
0318
0618
0618
0FFC
080C
180C
100C
300C
200C
F81F
ENDCHAR

STARTCHAR Adieresis
ENCODING 196
SWIDTH 606 0
DWIDTH 15 0
BBX 16 22 -2 0
BITMAP
0066
0066
0066
0000
0000
0030
0070
0070
00F0
0098
0198
0118
0318
0618
0618
0FFC
080C
180C
100C
300C
200C
F81F
ENDCHAR

STARTCHAR Aring
ENCODING 197
SWIDTH 606 0
DWIDTH 15 0
BBX 16 24 -2 0
BITMAP
0038
0044
0044
0044
0038
0000
0000
0030
0070
0070
00F0
0098
0198
0118
0318
0618
0618
0FFC
080C
180C
100C
300C
200C
F81F
ENDCHAR

STARTCHAR AE
ENCODING 198
SWIDTH 873 0
DWIDTH 22 0
BBX 25 17 -3 0
BITMAP
001FFF80
00078180
000D8180
00198100
00198000
00318000
00630400
00C30C00
01C3FC00
01830800
03FF0800
06060000
0C060000
18060200
10060200
20060600
F81FFE00
ENDCHAR

STARTCHAR Ccedilla
ENCODING 199
SWIDTH 604 0
DWIDTH 15 0
BBX 14 22 1 -5
BITMAP
03F8
0E0C
180C
300C
7008
6000
6000
C000
C000
C000
C000
C000
C010
6030
6030
3860
1FC0
0400
0700
0300
0300
1C00
ENDCHAR

STARTCHAR Egrave
ENCODING 200
SWIDTH 546 0
DWIDTH 13 0
BBX 14 23 -1 0
BITMAP
0380
0180
0180
00C0
00C0
0000
1FFC
060C
0C0C
0C08
0C00
0C00
0C20
1C20
1FE0
1840
1840
1800
1800
3018
3010
3030
FFF0
ENDCHAR

STARTCHAR Eacute
ENCODING 201
SWIDTH 546 0
DWIDTH 13 0
BBX 14 23 -1 0
BITMAP
001C
0038
0030
0060
00C0
0000
1FFC
060C
0C0C
0C08
0C00
0C00
0C20
1C20
1FE0
1840
1840
1800
1800
3018
3010
3030
FFF0
ENDCHAR

STARTCHAR Ecircumflex
ENCODING 202
SWIDTH 546 0
DWIDTH 13 0
BBX 14 23 -1 0
BITMAP
00C0
00E0
0120
0320
0630
0000
1FFC
060C
0C0C
0C08
0C00
0C00
0C20
1C20
1FE0
1840
1840
1800
1800
3018
3010
3030
FFF0
ENDCHAR

STARTCHAR Edieresis
ENCODING 203
SWIDTH 546 0
DWIDTH 13 0
BBX 14 22 -1 0
BITMAP
0198
0198
0198
0000
0000
1FFC
060C
0C0C
0C08
0C00
0C00
0C20
1C20
1FE0
1840
1840
1800
1800
3018
3010
3030
FFF0
ENDCHAR

STARTCHAR Igrave
ENCODING 204
SWIDTH 313 0
DWIDTH 8 0
BBX 9 23 -1 0
BITMAP
1C00
0C00
0C00
0600
0600
0000
1F80
0600
0600
0E00
0C00
0C00
0C00
0C00
1C00
1800
1800
1800
1800
3800
3000
3000
FC00
ENDCHAR

STARTCHAR Iacute
ENCODING 205
SWIDTH 313 0
DWIDTH 8 0
BBX 11 23 -1 0
BITMAP
00E0
01C0
0180
0300
0600
0000
1F80
0600
0600
0E00
0C00
0C00
0C00
0C00
1C00
1800
1800
1800
1800
3800
3000
3000
FC00
ENDCHAR

STARTCHAR Icircumflex
ENCODING 206
SWIDTH 313 0
DWIDTH 8 0
BBX 9 23 -1 0
BITMAP
0600
0700
0900
1900
3180
0000
1F80
0600
0600
0E00
0C00
0C00
0C00
0C00
1C00
1800
1800
1800
1800
3800
3000
3000
FC00
ENDCHAR

STARTCHAR Idieresis
ENCODING 207
SWIDTH 313 0
DWIDTH 8 0
BBX 10 22 -1 0
BITMAP
0CC0
0CC0
0CC0
0000
0000
1F80
0600
0600
0E00
0C00
0C00
0C00
0C00
1C00
1800
1800
1800
1800
3800
3000
3000
FC00
ENDCHAR

STARTCHAR Eth
ENCODING 208
SWIDTH 671 0
DWIDTH 16 0
BBX 16 17 -1 0
BITMAP
1FF0
061C
060E
0E06
0C03
0C03
0C03
0C03
7FC3
1803
1806
1806
180E
380C
3838
30F0
FF80
ENDCHAR

STARTCHAR Ntilde
ENCODING 209
SWIDTH 683 0
DWIDTH 17 0
BBX 19 23 -1 0
BITMAP
004200
00FC00
010800
000000
000000
000000
1E03E0
070080
070180
0F8180
0D8100
098100
08C100
08C300
186300
186200
107200
103200
103E00
301E00
301E00
200C00
F80C00
ENDCHAR

STARTCHAR Ograve
ENCODING 210
SWIDTH 708 0
DWIDTH 18 0
BBX 16 23 1 0
BITMAP
0380
0180
0180
00C0
00C0
0000
03F0
0E1C
1806
3806
7003
6003
6003
E003
C003
C003
C006
C006
C00E
600C
6018
3870
0FC0
ENDCHAR

STARTCHAR Oacute
ENCODING 211
SWIDTH 708 0
DWIDTH 18 0
BBX 16 23 1 0
BITMAP
001C
0038
0030
0060
00C0
0000
03F0
0E1C
1806
3806
7003
6003
6003
E003
C003
C003
C006
C006
C00E
600C
6018
3870
0FC0
ENDCHAR

STARTCHAR Ocircumflex
ENCODING 212
SWIDTH 708 0
DWIDTH 18 0
BBX 16 23 1 0
BITMAP
00C0
00E0
0120
0320
0630
0000
03F0
0E1C
1806
3806
7003
6003
6003
E003
C003
C003
C006
C006
C00E
600C
6018
3870
0FC0
ENDCHAR

STARTCHAR Otilde
ENCODING 213
SWIDTH 708 0
DWIDTH 18 0
BBX 16 23 1 0
BITMAP
0108
03F0
0420
0000
0000
0000
03F0
0E1C
1806
3806
7003
6003
6003
E003
C003
C003
C006
C006
C00E
600C
6018
3870
0FC0
ENDCHAR

STARTCHAR Odieresis
ENCODING 214
SWIDTH 708 0
DWIDTH 18 0
BBX 16 22 1 0
BITMAP
0198
0198
0198
0000
0000
03F0
0E1C
1806
3806
7003
6003
6003
E003
C003
C003
C006
C006
C00E
600C
6018
3870
0FC0
ENDCHAR

STARTCHAR multiply
ENCODING 215
SWIDTH 833 0
DWIDTH 21 0
BBX 14 14 4 0
BITMAP
4008
E01C
7038
3870
1CE0
0FC0
0780
0780
0FC0
1CE0
3870
7038
E01C
4008
ENDCHAR

STARTCHAR Oslash
ENCODING 216
SWIDTH 708 0
DWIDTH 18 0
BBX 16 21 1 -2
BITMAP
0000
0006
03F4
0E1C
181E
3036
7023
6043
60C3
C083
C103
C303
C206
C406
C80E
780C
7018
3870
6FC0
4000
4000
ENDCHAR

STARTCHAR Ugrave
ENCODING 217
SWIDTH 664 0
DWIDTH 17 0
BBX 16 23 2 0
BITMAP
0700
0300
0300
0180
0180
0000
FC1F
3004
300C
300C
6008
6008
6008
6018
6018
6010
C010
C010
C030
C020
C060
E0C0
3F80
ENDCHAR

STARTCHAR Uacute
ENCODING 218
SWIDTH 664 0
DWIDTH 17 0
BBX 16 23 2 0
BITMAP
0038
0070
0060
00C0
0180
0000
FC1F
3004
300C
300C
6008
6008
6008
6018
6018
6010
C010
C010
C030
C020
C060
E0C0
3F80
ENDCHAR

STARTCHAR Ucircumflex
ENCODING 219
SWIDTH 664 0
DWIDTH 17 0
BBX 16 23 2 0
BITMAP
0180
01C0
0240
0640
0C60
0000
FC1F
3004
300C
300C
6008
6008
6008
6018
6018
6010
C010
C010
C030
C020
C060
E0C0
3F80
ENDCHAR

STARTCHAR Udieresis
ENCODING 220
SWIDTH 664 0
DWIDTH 17 0
BBX 16 22 2 0
BITMAP
0330
0330
0330
0000
0000
FC1F
3004
300C
300C
6008
6008
6008
6018
6018
6010
C010
C010
C030
C020
C060
E0C0
3F80
ENDCHAR

STARTCHAR Yacute
ENCODING 221
SWIDTH 563 0
DWIDTH 14 0
BBX 15 23 1 0
BITMAP
0038
0070
0060
00C0
0180
0000
FC3E
3018
3010
3830
1860
18C0
1C80
0D80
0F00
0E00
0600
0C00
0C00
0C00
0C00
0C00
3F00
ENDCHAR

STARTCHAR Thorn
ENCODING 222
SWIDTH 532 0
DWIDTH 13 0
BBX 14 17 -1 0
BITMAP
1F80
0600
0600
07F0
0E18
0C1C
0C0C
0C0C
0C0C
1C0C
1818
1838
1870
1FC0
3800
3000
FC00
ENDCHAR

STARTCHAR germandbls
ENCODING 223
SWIDTH 574 0
DWIDTH 14 0
BBX 17 23 -4 -5
BITMAP
003E00
006380
00C180
008180
018180
018180
030700
031800
031000
033000
031800
031E00
020F00
060380
060380
066300
066300
043C00
0C0000
0C0000
080000
F00000
E00000
ENDCHAR

STARTCHAR agrave
ENCODING 224
SWIDTH 525 0
DWIDTH 13 0
BBX 12 18 0 0
BITMAP
0E00
0600
0600
0300
0300
0000
0000
07E0
18E0
3040
6040
6040
C0C0
C0C0
C0C0
C080
E380
7CF0
ENDCHAR

STARTCHAR aacute
ENCODING 225
SWIDTH 525 0
DWIDTH 13 0
BBX 12 18 0 0
BITMAP
0070
00E0
00C0
0180
0300
0000
0000
07E0
18E0
3040
6040
6040
C0C0
C0C0
C0C0
C080
E380
7CF0
ENDCHAR

STARTCHAR acircumflex
ENCODING 226
SWIDTH 525 0
DWIDTH 13 0
BBX 12 18 0 0
BITMAP
0300
0380
0480
0C80
18C0
0000
0000
07E0
18E0
3040
6040
6040
C0C0
C0C0
C0C0
C080
E380
7CF0
ENDCHAR

STARTCHAR atilde
ENCODING 227
SWIDTH 525 0
DWIDTH 13 0
BBX 12 18 0 0
BITMAP
0420
0FC0
1080
0000
0000
0000
0000
07E0
18E0
3040
6040
6040
C0C0
C0C0
C0C0
C080
E380
7CF0
ENDCHAR

STARTCHAR adieresis
ENCODING 228
SWIDTH 525 0
DWIDTH 13 0
BBX 12 17 0 0
BITMAP
0660
0660
0660
0000
0000
0000
07E0
18E0
3040
6040
6040
C0C0
C0C0
C0C0
C080
E380
7CF0
ENDCHAR

STARTCHAR aring
ENCODING 229
SWIDTH 525 0
DWIDTH 13 0
BBX 12 19 0 0
BITMAP
0380
0640
0440
0440
0640
0380
0000
0000
07E0
18E0
3040
6040
6040
C0C0
C0C0
C0C0
C080
E380
7CF0
ENDCHAR

STARTCHAR ae
ENCODING 230
SWIDTH 671 0
DWIDTH 17 0
BBX 16 11 0 0
BITMAP
0F9E
31E3
70C3
01C7
018E
0FF0
7180
C180
C181
C7C2
78FC
ENDCHAR

STARTCHAR ccedilla
ENCODING 231
SWIDTH 394 0
DWIDTH 10 0
BBX 9 16 0 -5
BITMAP
0F00
1380
2100
6000
C000
C000
C000
C000
C080
6300
3C00
2000
3800
1800
1800
E000
ENDCHAR

STARTCHAR egrave
ENCODING 232
SWIDTH 424 0
DWIDTH 11 0
BBX 9 18 1 0
BITMAP
3800
1800
1800
0C00
0C00
0000
0000
0F00
1180
2180
6380
C600
F800
C000
C000
C080
6300
3C00
ENDCHAR

STARTCHAR eacute
ENCODING 233
SWIDTH 424 0
DWIDTH 11 0
BBX 10 18 1 0
BITMAP
01C0
0380
0300
0600
0C00
0000
0000
0F00
1180
2180
6380
C600
F800
C000
C000
C080
6300
3C00
ENDCHAR

STARTCHAR ecircumflex
ENCODING 234
SWIDTH 424 0
DWIDTH 11 0
BBX 9 18 1 0
BITMAP
0C00
0E00
1200
3200
6300
0000
0000
0F00
1180
2180
6380
C600
F800
C000
C000
C080
6300
3C00
ENDCHAR

STARTCHAR edieresis
ENCODING 235
SWIDTH 424 0
DWIDTH 11 0
BBX 9 17 1 0
BITMAP
1980
1980
1980
0000
0000
0000
0F00
1180
2180
6380
C600
F800
C000
C000
C080
6300
3C00
ENDCHAR

STARTCHAR igrave
ENCODING 236
SWIDTH 287 0
DWIDTH 7 0
BBX 5 18 1 0
BITMAP
E0
60
60
30
30
00
00
F0
30
60
60
60
60
60
C0
C0
C0
F8
ENDCHAR

STARTCHAR iacute
ENCODING 237
SWIDTH 287 0
DWIDTH 7 0
BBX 8 18 1 0
BITMAP
07
0E
0C
18
30
00
00
F0
30
60
60
60
60
60
C0
C0
C0
F8
ENDCHAR

STARTCHAR icircumflex
ENCODING 238
SWIDTH 287 0
DWIDTH 7 0
BBX 7 18 0 0
BITMAP
18
1C
24
64
C6
00
00
78
18
30
30
30
30
30
60
60
60
7C
ENDCHAR

STARTCHAR idieresis
ENCODING 239
SWIDTH 287 0
DWIDTH 7 0
BBX 7 17 1 0
BITMAP
66
66
66
00
00
00
F0
30
60
60
60
60
60
C0
C0
C0
F8
ENDCHAR

STARTCHAR eth
ENCODING 240
SWIDTH 500 0
DWIDTH 12 0
BBX 10 18 1 0
BITMAP
1C00
0E40
07C0
0700
1F00
1180
0180
0F80
30C0
60C0
60C0
C0C0
C0C0
C0C0
C180
C180
6300
3C00
ENDCHAR

STARTCHAR ntilde
ENCODING 241
SWIDTH 556 0
DWIDTH 14 0
BBX 12 18 1 0
BITMAP
0840
1F80
2100
0000
0000
0000
0000
F3E0
3C60
3060
3060
6040
60C0
60C0
60C0
60C0
C1C0
C0F0
ENDCHAR

STARTCHAR ograve
ENCODING 242
SWIDTH 502 0
DWIDTH 13 0
BBX 11 18 1 0
BITMAP
1C00
0C00
0C00
0600
0600
0000
0000
0F80
18C0
6060
6060
C060
C060
C060
C0C0
C0C0
6380
3E00
ENDCHAR

STARTCHAR oacute
ENCODING 243
SWIDTH 502 0
DWIDTH 13 0
BBX 11 18 1 0
BITMAP
00E0
01C0
0180
0300
0600
0000
0000
0F80
18C0
6060
6060
C060
C060
C060
C0C0
C0C0
6380
3E00
ENDCHAR

STARTCHAR ocircumflex
ENCODING 244
SWIDTH 502 0
DWIDTH 13 0
BBX 11 18 1 0
BITMAP
0600
0700
0900
1900
3180
0000
0000
0F80
18C0
6060
6060
C060
C060
C060
C0C0
C0C0
6380
3E00
ENDCHAR

STARTCHAR otilde
ENCODING 245
SWIDTH 502 0
DWIDTH 13 0
BBX 11 18 1 0
BITMAP
0840
1F80
2100
0000
0000
0000
0000
0F80
18C0
6060
6060
C060
C060
C060
C0C0
C0C0
6380
3E00
ENDCHAR

STARTCHAR odieresis
ENCODING 246
SWIDTH 502 0
DWIDTH 13 0
BBX 11 17 1 0
BITMAP
0CC0
0CC0
0CC0
0000
0000
0000
0F80
18C0
6060
6060
C060
C060
C060
C0C0
C0C0
6380
3E00
ENDCHAR

STARTCHAR divide
ENCODING 247
SWIDTH 833 0
DWIDTH 21 0
BBX 15 11 3 2
BITMAP
0380
0380
0380
0000
0000
FFFE
0000
0000
0380
0380
0380
ENDCHAR

STARTCHAR oslash
ENCODING 248
SWIDTH 502 0
DWIDTH 13 0
BBX 11 15 1 -2
BITMAP
0020
0040
0FC0
18C0
3160
6160
C260
C460
C860
C8C0
D080
6300
3E00
4000
8000
ENDCHAR

STARTCHAR ugrave
ENCODING 249
SWIDTH 553 0
DWIDTH 14 0
BBX 12 18 1 0
BITMAP
1C00
0C00
0C00
0600
0600
0000
0000
F060
3060
60C0
60C0
60C0
60C0
C080
C180
C180
C780
79F0
ENDCHAR

STARTCHAR uacute
ENCODING 250
SWIDTH 553 0
DWIDTH 14 0
BBX 12 18 1 0
BITMAP
00E0
01C0
0180
0300
0600
0000
0000
F060
3060
60C0
60C0
60C0
60C0
C080
C180
C180
C780
79F0
ENDCHAR

STARTCHAR ucircumflex
ENCODING 251
SWIDTH 553 0
DWIDTH 14 0
BBX 12 18 1 0
BITMAP
0600
0700
0900
1900
3180
0000
0000
F060
3060
60C0
60C0
60C0
60C0
C080
C180
C180
C780
79F0
ENDCHAR

STARTCHAR udieresis
ENCODING 252
SWIDTH 553 0
DWIDTH 14 0
BBX 12 17 1 0
BITMAP
0CC0
0CC0
0CC0
0000
0000
0000
F060
3060
60C0
60C0
60C0
60C0
C080
C180
C180
C780
79F0
ENDCHAR

STARTCHAR yacute
ENCODING 253
SWIDTH 475 0
DWIDTH 12 0
BBX 15 23 -3 -5
BITMAP
000E
001C
0018
0030
0060
0000
0000
3E0E
060C
0618
0210
0310
0320
0320
0340
01C0
0180
0180
0100
0200
0600
CC00
F000
ENDCHAR

STARTCHAR thorn
ENCODING 254
SWIDTH 516 0
DWIDTH 13 0
BBX 14 23 -2 -5
BITMAP
1F00
0300
0300
0700
0600
0600
0600
06F8
0F1C
0C0C
0C0C
0C0C
0C0C
1C1C
1818
1830
1860
1F80
3800
3000
3000
3000
FC00
ENDCHAR

STARTCHAR ydieresis
ENCODING 255
SWIDTH 475 0
DWIDTH 12 0
BBX 15 22 -3 -5
BITMAP
00CC
00CC
00CC
0000
0000
0000
3E0E
060C
0618
0210
0310
0320
0320
0340
01C0
0180
0180
0100
0200
0600
CC00
F000
ENDCHAR
ENDFONT
